<svg width="19" height="20" viewBox="0 0 19 20" fill="#182233" xmlns="http://www.w3.org/2000/svg">
<path d="M16.5556 20H2.06944C0.926522 20 0 19.1046 0 18V4C0 2.89543 0.926522 2 2.06944 2H4.13889V0H6.20833V2H12.4167V0H14.4861V2H16.5556C17.6985 2 18.625 2.89543 18.625 4V18C18.625 19.1046 17.6985 20 16.5556 20ZM2.06944 8V18H16.5556V8H2.06944ZM2.06944 4V6H16.5556V4H2.06944ZM14.4861 16H12.4167V14H14.4861V16ZM10.3472 16H8.27778V14H10.3472V16ZM6.20833 16H4.13889V14H6.20833V16ZM14.4861 12H12.4167V10H14.4861V12ZM10.3472 12H8.27778V10H10.3472V12ZM6.20833 12H4.13889V10H6.20833V12Z" fill="#182233"/>
</svg>
